<svg xmlns="http://www.w3.org/2000/svg" width="1400" height="900" viewBox="0 0 1400 900">
<defs>
  <marker id="a" markerWidth="9" markerHeight="9" refX="4.5" refY="4.5" orient="auto">
    <path d="M1,1 L8,4.5 L1,8 Z" fill="#58a6ff"/>
  </marker>
  <style>
  .bg{fill:#0e1116}
  .panel{fill:#161b22;stroke:#30363d;stroke-width:1}
  .ink{fill:#e6edf3}
  .muted{fill:#8b949e}
  .accent{fill:#ff7b3d}
  .glow{fill:#ff3b30}
  .line{stroke:#e6edf3;stroke-width:2;fill:none}
  .thin{stroke:#8b949e;stroke-width:1;fill:none}
  .dim{stroke:#58a6ff;stroke-width:1;fill:none}
  .dimtxt{fill:#58a6ff;font:600 13px 'Segoe UI',sans-serif}
  .body{fill:#21262d;stroke:#484f58;stroke-width:1.5}
  .ghost{fill:none;stroke:#3fb950;stroke-width:1.5;stroke-dasharray:5 4}
  text{font-family:'Segoe UI',Arial,sans-serif}
  .title{font:700 26px 'Segoe UI';fill:#e6edf3}
  .sub{font:400 14px 'Segoe UI';fill:#8b949e}
  .lbl{font:600 13px 'Segoe UI';fill:#e6edf3}
  .note{font:400 12px 'Segoe UI';fill:#8b949e}
</style>
</defs>
<rect class="bg" width="1400" height="900"/>
<text class="title" x="40" y="50">T007 · Reference Board — Domestic Gas Heater &amp; LP Cylinder</text>
<text class="sub" x="40" y="74">Warm Wheelers · Red Bull Soapbox JHB 2026 · real product proportions (mm) · v0 2026-06-22</text>

<!-- Heater front -->
<g transform="translate(70,120)">
  <text class="lbl" x="0" y="-10">Radiant heater — FRONT (Goldair-style)</text>
  <rect class="body" x="0" y="0" width="300" height="350" rx="14"/>
  <!-- grille -->
  <rect class="panel" x="22" y="40" width="256" height="220" rx="6"/>
  <rect class="glow" x="34" y="52" width="232" height="14" rx="7" opacity="0.35"/><rect class="glow" x="34" y="86" width="232" height="14" rx="7" opacity="0.41"/><rect class="glow" x="34" y="120" width="232" height="14" rx="7" opacity="0.47"/><rect class="glow" x="34" y="154" width="232" height="14" rx="7" opacity="0.53"/><rect class="glow" x="34" y="188" width="232" height="14" rx="7" opacity="0.59"/><rect class="glow" x="34" y="222" width="232" height="14" rx="7" opacity="0.6499999999999999"/>
  <!-- knobs -->
  <circle class="accent" cx="60" cy="300" r="14"/><circle class="accent" cx="110" cy="300" r="14"/>
  <rect class="muted" x="180" y="288" width="96" height="24" rx="6" fill="#30363d"/>
  <text class="note" x="200" y="304" fill="#e6edf3">WARM WHEELERS</text>
  <!-- castors -->
  <circle class="ink" cx="40" cy="358" r="10"/><circle class="ink" cx="260" cy="358" r="10"/>
  
  <line class="dim" x1="0" y1="400" x2="300" y2="400" marker-start="url(#a)" marker-end="url(#a)"/>
  <line class="thin" x1="0" y1="394" x2="0" y2="406"/>
  <line class="thin" x1="300" y1="394" x2="300" y2="406"/>
  <text class="dimtxt" x="150" y="393" text-anchor="middle">≈ 600 width</text>
  
  <line class="dim" x1="-30" y1="0" x2="-30" y2="350" marker-start="url(#a)" marker-end="url(#a)"/>
  <line class="thin" x1="-36" y1="0" x2="-24" y2="0"/>
  <line class="thin" x1="-36" y1="350" x2="-24" y2="350"/>
  <text class="dimtxt" x="-38" y="175" text-anchor="end" transform="rotate(-90 -38 175)">≈ 700 height</text>
</g>

<!-- Heater side -->
<g transform="translate(520,120)">
  <text class="lbl" x="0" y="-10">Radiant heater — SIDE</text>
  <rect class="body" x="0" y="0" width="120" height="350" rx="14"/>
  <rect class="thin" x="6" y="40" width="10" height="220"/>
  <circle class="ink" cx="20" cy="358" r="10"/><circle class="ink" cx="100" cy="358" r="10"/>
  
  <line class="dim" x1="0" y1="400" x2="120" y2="400" marker-start="url(#a)" marker-end="url(#a)"/>
  <line class="thin" x1="0" y1="394" x2="0" y2="406"/>
  <line class="thin" x1="120" y1="394" x2="120" y2="406"/>
  <text class="dimtxt" x="60" y="393" text-anchor="middle">≈ 230 depth</text>
</g>

<!-- LP cylinder 9kg -->
<g transform="translate(760,150)">
  <text class="lbl" x="0" y="-10">LP cylinder — 9 kg (costume basis)</text>
  <rect class="accent" x="30" y="60" width="150" height="260" rx="20"/>
  <rect class="accent" x="70" y="30" width="70" height="40" rx="8"/>
  <rect class="muted" x="86" y="6" width="38" height="30" rx="6" fill="#30363d"/>
  
  <line class="dim" x1="30" y1="360" x2="180" y2="360" marker-start="url(#a)" marker-end="url(#a)"/>
  <line class="thin" x1="30" y1="354" x2="30" y2="366"/>
  <line class="thin" x1="180" y1="354" x2="180" y2="366"/>
  <text class="dimtxt" x="105" y="353" text-anchor="middle">≈ 310 Ø</text>
  
  <line class="dim" x1="10" y1="30" x2="10" y2="320" marker-start="url(#a)" marker-end="url(#a)"/>
  <line class="thin" x1="4" y1="30" x2="16" y2="30"/>
  <line class="thin" x1="4" y1="320" x2="16" y2="320"/>
  <text class="dimtxt" x="2" y="175" text-anchor="end" transform="rotate(-90 2 175)">≈ 580 tall</text>
</g>

<!-- LP cylinder 19kg -->
<g transform="translate(1010,120)">
  <text class="lbl" x="0" y="-10">LP cylinder — 19 kg (alt)</text>
  <rect class="accent" x="30" y="60" width="190" height="300" rx="24" opacity="0.85"/>
  <rect class="accent" x="80" y="28" width="90" height="44" rx="8" opacity="0.85"/>
  <rect class="muted" x="104" y="4" width="42" height="30" rx="6" fill="#30363d"/>
  
  <line class="dim" x1="30" y1="400" x2="220" y2="400" marker-start="url(#a)" marker-end="url(#a)"/>
  <line class="thin" x1="30" y1="394" x2="30" y2="406"/>
  <line class="thin" x1="220" y1="394" x2="220" y2="406"/>
  <text class="dimtxt" x="125" y="393" text-anchor="middle">≈ 375 Ø</text>
  
  <line class="dim" x1="10" y1="28" x2="10" y2="360" marker-start="url(#a)" marker-end="url(#a)"/>
  <line class="thin" x1="4" y1="28" x2="16" y2="28"/>
  <line class="thin" x1="4" y1="360" x2="16" y2="360"/>
  <text class="dimtxt" x="2" y="194" text-anchor="end" transform="rotate(-90 2 194)">≈ 700 tall</text>
</g>

<!-- notes box -->
<g transform="translate(70,560)">
  <rect class="panel" x="0" y="0" width="1260" height="290" rx="12"/>
  <text class="lbl" x="20" y="34">Dimension notes &amp; sourcing</text>
  <text class="note" x="20" y="64">• Heater silhouette target: tall, narrow box ≈ 600 W × 700 H × 230 D — the "honest heater" proportion the shell must read as (matrix SP1).</text>
  <text class="note" x="20" y="90">• Front grille = where the red glow panels sit; 6 bars, lit bar-by-bar (matrix SP5). Control knobs + nameplate at lower face.</text>
  <text class="note" x="20" y="116">• Castor wheels are cosmetic cues only — real running wheels are larger and load-bearing (see T009).</text>
  <text class="note" x="20" y="142">• 9 kg bottle (≈310 Ø ×580) is the lighter costume basis; 19 kg (≈375 Ø ×700) if a bigger seated read is wanted. Pick before T008.</text>
  <text class="note" x="20" y="168">• Cylinder dims are nominal SA domestic LPG; confirm against the actual bottle/costume foam blank before committing.</text>
  <text class="note" x="20" y="194" fill="#3fb950">ACTION: replace these block diagrams with 6–10 sourced photos (front / side / 3-4 / grille close-up) + measured dims on the real units.</text>
  <text class="note" x="20" y="220" fill="#3fb950">ACTION: log image sources/links in dimension-notes.md so proportions are traceable.</text>
  <text class="note" x="20" y="258" fill="#8b949e">Status: scaffold v0 (proportions blocked in) — feeds T008 costume volume + T009 shell silhouette.</text>
</g>
</svg>